<mxfile host="app.diagrams.net" agent="Mozilla/5.0 (Windows NT 10.0; Win64; x64) AppleWebKit/537.36 (KHTML, like Gecko) Chrome/136.0.0.0 Safari/537.36" version="27.0.1">
  <diagram name="Page-1" id="RqXAGrgpMaCuqYRQGngq">
    <mxGraphModel dx="1603" dy="1012" grid="1" gridSize="10" guides="1" tooltips="1" connect="1" arrows="1" fold="1" page="1" pageScale="1" pageWidth="850" pageHeight="1100" math="0" shadow="0">
      <root>
        <mxCell id="0" />
        <mxCell id="1" parent="0" />
        <mxCell id="2" value="Start" style="whiteSpace=wrap;strokeWidth=2;" parent="1" vertex="1">
          <mxGeometry x="892" y="8" width="95" height="54" as="geometry" />
        </mxCell>
        <mxCell id="fZJtm6rxl1DuDzaSBXnR-48" style="edgeStyle=orthogonalEdgeStyle;rounded=0;orthogonalLoop=1;jettySize=auto;html=1;exitX=0;exitY=0.75;exitDx=0;exitDy=0;entryX=0.5;entryY=0;entryDx=0;entryDy=0;" edge="1" parent="1" source="3" target="4">
          <mxGeometry relative="1" as="geometry" />
        </mxCell>
        <mxCell id="3" value="Customer views services" style="whiteSpace=wrap;strokeWidth=2;" parent="1" vertex="1">
          <mxGeometry x="746" y="112" width="234" height="54" as="geometry" />
        </mxCell>
        <mxCell id="4" value="Select service type" style="rhombus;strokeWidth=2;whiteSpace=wrap;" parent="1" vertex="1">
          <mxGeometry x="378" y="216" width="190" height="190" as="geometry" />
        </mxCell>
        <mxCell id="5" value="View product details" style="whiteSpace=wrap;strokeWidth=2;" parent="1" vertex="1">
          <mxGeometry x="174" y="479" width="208" height="54" as="geometry" />
        </mxCell>
        <mxCell id="6" value="View event details" style="whiteSpace=wrap;strokeWidth=2;" parent="1" vertex="1">
          <mxGeometry x="432" y="479" width="192" height="54" as="geometry" />
        </mxCell>
        <mxCell id="7" value="View bundle details" style="whiteSpace=wrap;strokeWidth=2;" parent="1" vertex="1">
          <mxGeometry x="818" y="479" width="201" height="54" as="geometry" />
        </mxCell>
        <mxCell id="8" value="Add product to cart" style="whiteSpace=wrap;strokeWidth=2;" parent="1" vertex="1">
          <mxGeometry x="352" y="583" width="201" height="54" as="geometry" />
        </mxCell>
        <mxCell id="9" value="Customer views cart" style="whiteSpace=wrap;strokeWidth=2;" parent="1" vertex="1">
          <mxGeometry x="350" y="687" width="206" height="54" as="geometry" />
        </mxCell>
        <mxCell id="10" value="View or Remove items?" style="rhombus;strokeWidth=2;whiteSpace=wrap;" parent="1" vertex="1">
          <mxGeometry x="8" y="791" width="219" height="219" as="geometry" />
        </mxCell>
        <mxCell id="11" value="Show items in cart" style="whiteSpace=wrap;strokeWidth=2;" parent="1" vertex="1">
          <mxGeometry x="93" y="1094" width="193" height="54" as="geometry" />
        </mxCell>
        <mxCell id="12" value="Remove selected item from cart" style="whiteSpace=wrap;strokeWidth=2;" parent="1" vertex="1">
          <mxGeometry x="336" y="1082" width="260" height="78" as="geometry" />
        </mxCell>
        <mxCell id="13" value="Checkout?" style="rhombus;strokeWidth=2;whiteSpace=wrap;" parent="1" vertex="1">
          <mxGeometry x="709" y="837" width="127" height="127" as="geometry" />
        </mxCell>
        <mxCell id="14" value="Proceed to checkout" style="whiteSpace=wrap;strokeWidth=2;" parent="1" vertex="1">
          <mxGeometry x="646" y="1094" width="207" height="54" as="geometry" />
        </mxCell>
        <mxCell id="15" value="Continue shopping" style="whiteSpace=wrap;strokeWidth=2;" parent="1" vertex="1">
          <mxGeometry x="903" y="1094" width="192" height="54" as="geometry" />
        </mxCell>
        <mxCell id="16" value="Add installation cost" style="whiteSpace=wrap;strokeWidth=2;" parent="1" vertex="1">
          <mxGeometry x="646" y="1210" width="207" height="54" as="geometry" />
        </mxCell>
        <mxCell id="17" value="Select mode of payment" style="rhombus;strokeWidth=2;whiteSpace=wrap;" parent="1" vertex="1">
          <mxGeometry x="635" y="1314" width="229" height="229" as="geometry" />
        </mxCell>
        <mxCell id="18" value="Process PayPal payment" style="whiteSpace=wrap;strokeWidth=2;" parent="1" vertex="1">
          <mxGeometry x="634" y="1719" width="230" height="54" as="geometry" />
        </mxCell>
        <mxCell id="19" value="Upload screenshot" style="whiteSpace=wrap;strokeWidth=2;" parent="1" vertex="1">
          <mxGeometry x="778" y="1615" width="192" height="54" as="geometry" />
        </mxCell>
        <mxCell id="20" value="Payment processed" style="whiteSpace=wrap;strokeWidth=2;" parent="1" vertex="1">
          <mxGeometry x="651" y="1823" width="197" height="54" as="geometry" />
        </mxCell>
        <mxCell id="fZJtm6rxl1DuDzaSBXnR-49" style="edgeStyle=orthogonalEdgeStyle;rounded=0;orthogonalLoop=1;jettySize=auto;html=1;exitX=1;exitY=0;exitDx=0;exitDy=0;entryX=1;entryY=0.25;entryDx=0;entryDy=0;" edge="1" parent="1" source="21" target="3">
          <mxGeometry relative="1" as="geometry" />
        </mxCell>
        <mxCell id="21" value="Redirect to payment successful page" style="whiteSpace=wrap;strokeWidth=2;" parent="1" vertex="1">
          <mxGeometry x="945" y="1927" width="260" height="78" as="geometry" />
        </mxCell>
        <mxCell id="24" value="Product" style="startArrow=none;endArrow=block;exitX=0;exitY=0.84;entryX=0.5;entryY=-0.01;" parent="1" source="4" target="5" edge="1">
          <mxGeometry relative="1" as="geometry" />
        </mxCell>
        <mxCell id="25" value="Event" style="startArrow=none;endArrow=block;exitX=0.71;exitY=1;entryX=0.5;entryY=-0.01;" parent="1" source="4" target="6" edge="1">
          <mxGeometry relative="1" as="geometry" />
        </mxCell>
        <mxCell id="26" value="Bundle" style="startArrow=none;endArrow=block;exitX=1;exitY=0.65;entryX=0.5;entryY=-0.01;" parent="1" source="4" target="7" edge="1">
          <mxGeometry relative="1" as="geometry" />
        </mxCell>
        <mxCell id="27" value="" style="startArrow=none;endArrow=block;exitX=0.5;exitY=0.99;entryX=0.05;entryY=-0.01;" parent="1" source="5" target="8" edge="1">
          <mxGeometry relative="1" as="geometry" />
        </mxCell>
        <mxCell id="28" value="" style="startArrow=none;endArrow=block;exitX=0.5;exitY=0.99;entryX=0.7;entryY=-0.01;" parent="1" source="6" target="8" edge="1">
          <mxGeometry relative="1" as="geometry" />
        </mxCell>
        <mxCell id="29" value="" style="startArrow=none;endArrow=block;exitX=0.5;exitY=0.99;entryX=1;entryY=0.28;" parent="1" source="7" target="8" edge="1">
          <mxGeometry relative="1" as="geometry" />
        </mxCell>
        <mxCell id="30" value="" style="curved=1;startArrow=none;endArrow=block;exitX=0.5;exitY=0.99;entryX=0.5;entryY=-0.01;" parent="1" source="8" target="9" edge="1">
          <mxGeometry relative="1" as="geometry">
            <Array as="points" />
          </mxGeometry>
        </mxCell>
        <mxCell id="31" value="" style="startArrow=none;endArrow=block;exitX=0;exitY=0.79;entryX=0.5;entryY=0;" parent="1" source="9" target="10" edge="1">
          <mxGeometry relative="1" as="geometry" />
        </mxCell>
        <mxCell id="32" value="View" style="startArrow=none;endArrow=block;exitX=0.5;exitY=1;entryX=0.37;entryY=-0.01;" parent="1" source="10" target="11" edge="1">
          <mxGeometry relative="1" as="geometry" />
        </mxCell>
        <mxCell id="33" value="Remove" style="startArrow=none;endArrow=block;exitX=1;exitY=0.81;entryX=0.27;entryY=-0.01;" parent="1" source="10" target="12" edge="1">
          <mxGeometry relative="1" as="geometry" />
        </mxCell>
        <mxCell id="34" value="" style="startArrow=none;endArrow=block;exitX=0.71;exitY=-0.01;entryX=0.12;entryY=0.99;" parent="1" source="11" target="9" edge="1">
          <mxGeometry relative="1" as="geometry" />
        </mxCell>
        <mxCell id="35" value="" style="startArrow=none;endArrow=block;exitX=0.68;exitY=-0.01;entryX=0.77;entryY=0.99;" parent="1" source="12" target="9" edge="1">
          <mxGeometry relative="1" as="geometry" />
        </mxCell>
        <mxCell id="36" value="" style="startArrow=none;endArrow=block;exitX=1;exitY=0.8;entryX=0.5;entryY=0;" parent="1" source="9" target="13" edge="1">
          <mxGeometry relative="1" as="geometry" />
        </mxCell>
        <mxCell id="37" value="Yes" style="startArrow=none;endArrow=block;exitX=0.42;exitY=0.99;entryX=0.5;entryY=-0.01;" parent="1" source="13" target="14" edge="1">
          <mxGeometry relative="1" as="geometry" />
        </mxCell>
        <mxCell id="38" value="No" style="startArrow=none;endArrow=block;exitX=0.92;exitY=0.99;entryX=0.31;entryY=-0.01;" parent="1" source="13" target="15" edge="1">
          <mxGeometry relative="1" as="geometry" />
        </mxCell>
        <mxCell id="39" value="" style="curved=1;startArrow=none;endArrow=block;exitX=0.5;exitY=0.99;entryX=0.5;entryY=-0.01;" parent="1" source="14" target="16" edge="1">
          <mxGeometry relative="1" as="geometry">
            <Array as="points" />
          </mxGeometry>
        </mxCell>
        <mxCell id="40" value="" style="curved=1;startArrow=none;endArrow=block;exitX=0.5;exitY=0.99;entryX=0.5;entryY=0;" parent="1" source="16" target="17" edge="1">
          <mxGeometry relative="1" as="geometry">
            <Array as="points" />
          </mxGeometry>
        </mxCell>
        <mxCell id="41" value="PayPal" style="startArrow=none;endArrow=block;exitX=0.24;exitY=1;entryX=0.33;entryY=0;" parent="1" source="17" target="18" edge="1">
          <mxGeometry relative="1" as="geometry" />
        </mxCell>
        <mxCell id="42" value="Online Payment" style="startArrow=none;endArrow=block;exitX=0.91;exitY=1;entryX=0.5;entryY=0;" parent="1" source="17" target="19" edge="1">
          <mxGeometry relative="1" as="geometry" />
        </mxCell>
        <mxCell id="43" value="" style="startArrow=none;endArrow=block;exitX=0.5;exitY=1;entryX=0.78;entryY=0;" parent="1" source="19" target="18" edge="1">
          <mxGeometry relative="1" as="geometry" />
        </mxCell>
        <mxCell id="44" value="" style="curved=1;startArrow=none;endArrow=block;exitX=0.5;exitY=1;entryX=0.5;entryY=0;" parent="1" source="18" target="20" edge="1">
          <mxGeometry relative="1" as="geometry">
            <Array as="points" />
          </mxGeometry>
        </mxCell>
        <mxCell id="45" value="" style="startArrow=none;endArrow=block;exitX=0.5;exitY=1;entryX=0;entryY=0.17;" parent="1" source="20" target="21" edge="1">
          <mxGeometry relative="1" as="geometry" />
        </mxCell>
        <mxCell id="46" value="" style="startArrow=none;endArrow=block;exitX=0.6;exitY=-0.01;entryX=0.92;entryY=1;" parent="1" source="15" target="3" edge="1">
          <mxGeometry relative="1" as="geometry" />
        </mxCell>
        <mxCell id="fZJtm6rxl1DuDzaSBXnR-47" style="edgeStyle=orthogonalEdgeStyle;rounded=0;orthogonalLoop=1;jettySize=auto;html=1;exitX=0.5;exitY=1;exitDx=0;exitDy=0;entryX=0.797;entryY=0.08;entryDx=0;entryDy=0;entryPerimeter=0;" edge="1" parent="1" source="2" target="3">
          <mxGeometry relative="1" as="geometry" />
        </mxCell>
      </root>
    </mxGraphModel>
  </diagram>
</mxfile>
